<svg width="80" xmlns="http://www.w3.org/2000/svg" height="80" id="screenshot-5fff5482-f1a7-80f0-8008-201fb9f1e0b7" viewBox="0 0 80 80" xmlns:xlink="http://www.w3.org/1999/xlink" fill="none" version="1.1"><g id="shape-5fff5482-f1a7-80f0-8008-201fb9f1e0b7"><defs><clipPath id="frame-clip-5fff5482-f1a7-80f0-8008-201fb9f1e0b7-render-1" class="frame-clip frame-clip-def"><rect rx="0" ry="0" x="0" y="0" width="80" height="80" transform="matrix(1.000000, 0.000000, 0.000000, 1.000000, 0.000000, 0.000000)"/></clipPath></defs><g class="frame-container-wrapper"><g class="frame-container-blur"><g class="frame-container-shadows"><g clip-path="url(#frame-clip-5fff5482-f1a7-80f0-8008-201fb9f1e0b7-render-1)" fill="none"><g class="fills" id="fills-5fff5482-f1a7-80f0-8008-201fb9f1e0b7"><rect rx="0" ry="0" x="0" y="0" width="80" height="80" transform="matrix(1.000000, 0.000000, 0.000000, 1.000000, 0.000000, 0.000000)" class="frame-background"/></g><g class="frame-children"><g id="shape-5fff5482-f1a7-80f0-8008-201fb9f1e0b8" width="24" class="icon icon-tabler icons-tabler-outline icon-tabler-creative-commons-nc" height="24" rx="0" ry="0" style="fill: rgb(0, 0, 0);"><g id="shape-5fff5482-f1a7-80f0-8008-201fb9f1e0b9" style="display: none;"><g class="fills" id="fills-5fff5482-f1a7-80f0-8008-201fb9f1e0b9"><rect width="80" height="80" x="0.16064769172953675" stroke-linejoin="round" transform="matrix(1.000000, 0.000000, 0.000000, 1.000000, 0.000000, 0.000000)" style="fill: none;" ry="0" fill="none" stroke-linecap="round" rx="0" y="-0.19038699295106198"/></g><g fill="none" stroke-linejoin="round" stroke-linecap="round" id="strokes-8d2d9bde-2cf3-80bf-8008-29b88161f744-5fff5482-f1a7-80f0-8008-201fb9f1e0b9" class="strokes"><g class="inner-stroke-shape" transform="matrix(1.000000, 0.000000, 0.000000, 1.000000, 0.000000, 0.000000)"><defs><clipPath id="inner-stroke-render-3-5fff5482-f1a7-80f0-8008-201fb9f1e0b9-0"><use href="#stroke-shape-render-3-5fff5482-f1a7-80f0-8008-201fb9f1e0b9-0"/></clipPath><rect rx="0" ry="0" x="0.16064769172953675" y="-0.19038699295106198" width="80" height="80" id="stroke-shape-render-3-5fff5482-f1a7-80f0-8008-201fb9f1e0b9-0" style="fill: none; stroke-width: 4; stroke: rgb(205, 205, 205); stroke-opacity: 1;"/></defs><use href="#stroke-shape-render-3-5fff5482-f1a7-80f0-8008-201fb9f1e0b9-0" clip-path="url('#inner-stroke-render-3-5fff5482-f1a7-80f0-8008-201fb9f1e0b9-0')"/></g></g></g><g id="shape-5fff5482-f1a7-80f0-8008-201fb9f1e0ba"><g class="fills" id="fills-5fff5482-f1a7-80f0-8008-201fb9f1e0ba"><path d="M0.16015625,-0.1904296875L80.16015625,-0.1904296875L80.16015625,79.8095703125L0.16015625,79.8095703125L0.16015625,-0.1904296875" stroke="none" fill="none" stroke-linejoin="round" stroke-linecap="round" stroke-width="2" style="fill: none;"/></g></g><g id="shape-5fff5482-f1a7-80f0-8008-201fb9f1e0bb"><g class="fills" id="fills-5fff5482-f1a7-80f0-8008-201fb9f1e0bb"><path d="M10.16015625,39.8095703125C10.16015625,56.37744140625,23.59765625,69.8095703125,40.16015625,69.8095703125C56.72265625,69.8095703125,70.16015625,56.37744140625,70.16015625,39.8095703125C70.16015625,23.2412109375,56.72265625,9.8095703125,40.16015625,9.8095703125C23.59765625,9.8095703125,10.16015625,23.2412109375,10.16015625,39.8095703125" fill="none" stroke-linejoin="round" stroke-linecap="round" style="fill: none;"/></g><g fill="none" stroke-linejoin="round" stroke-linecap="round" id="strokes-8d2d9bde-2cf3-80bf-8008-29b88163559a-5fff5482-f1a7-80f0-8008-201fb9f1e0bb" class="strokes"><g class="inner-stroke-shape"><defs><clipPath id="inner-stroke-render-5-5fff5482-f1a7-80f0-8008-201fb9f1e0bb-0"><use href="#stroke-shape-render-5-5fff5482-f1a7-80f0-8008-201fb9f1e0bb-0"/></clipPath><path d="M10.16015625,39.8095703125C10.16015625,56.37744140625,23.59765625,69.8095703125,40.16015625,69.8095703125C56.72265625,69.8095703125,70.16015625,56.37744140625,70.16015625,39.8095703125C70.16015625,23.2412109375,56.72265625,9.8095703125,40.16015625,9.8095703125C23.59765625,9.8095703125,10.16015625,23.2412109375,10.16015625,39.8095703125" id="stroke-shape-render-5-5fff5482-f1a7-80f0-8008-201fb9f1e0bb-0" style="fill: none; stroke-width: 4; stroke: rgb(205, 205, 205); stroke-opacity: 1;"/></defs><use href="#stroke-shape-render-5-5fff5482-f1a7-80f0-8008-201fb9f1e0bb-0" clip-path="url('#inner-stroke-render-5-5fff5482-f1a7-80f0-8008-201fb9f1e0bb-0')"/></g></g></g><g id="shape-5fff5482-f1a7-80f0-8008-201fb9f1e0bc"><g class="fills" id="fills-5fff5482-f1a7-80f0-8008-201fb9f1e0bc"><path d="M50.16015625,29.8095703125L35.16015625,29.8095703125C32.396484375,29.8095703125,30.16015625,32.048095703125,30.16015625,34.8095703125C30.16015625,37.57080078125,32.396484375,39.8095703125,35.16015625,39.8095703125L45.16015625,39.8095703125C47.919921875,39.8095703125,50.16015625,42.048095703125,50.16015625,44.8095703125C50.16015625,47.57080078125,47.919921875,49.8095703125,45.16015625,49.8095703125L30.16015625,49.8095703125" fill="none" stroke-linejoin="round" stroke-linecap="round" style="fill: none;"/></g><g fill="none" stroke-linejoin="round" stroke-linecap="round" id="strokes-8d2d9bde-2cf3-80bf-8008-29b88163d675-5fff5482-f1a7-80f0-8008-201fb9f1e0bc" class="strokes"><g class="stroke-shape"><path d="M50.16015625,29.8095703125L35.16015625,29.8095703125C32.396484375,29.8095703125,30.16015625,32.048095703125,30.16015625,34.8095703125C30.16015625,37.57080078125,32.396484375,39.8095703125,35.16015625,39.8095703125L45.16015625,39.8095703125C47.919921875,39.8095703125,50.16015625,42.048095703125,50.16015625,44.8095703125C50.16015625,47.57080078125,47.919921875,49.8095703125,45.16015625,49.8095703125L30.16015625,49.8095703125" style="fill: none; stroke-width: 2; stroke: rgb(205, 205, 205); stroke-opacity: 1;"/></g></g></g><g id="shape-5fff5482-f1a7-80f0-8008-201fb9f1e0bd"><g class="fills" id="fills-5fff5482-f1a7-80f0-8008-201fb9f1e0bd"><path d="M40.16015625,23.142822265625L40.16015625,29.8095703125" fill="none" stroke-linejoin="round" stroke-linecap="round" style="fill: none;"/></g><g fill="none" stroke-linejoin="round" stroke-linecap="round" id="strokes-8d2d9bde-2cf3-80bf-8008-29b881641977-5fff5482-f1a7-80f0-8008-201fb9f1e0bd" class="strokes"><g class="stroke-shape"><path d="M40.16015625,23.142822265625L40.16015625,29.8095703125" style="fill: none; stroke-width: 2; stroke: rgb(205, 205, 205); stroke-opacity: 1;"/></g></g></g><g id="shape-5fff5482-f1a7-80f0-8008-201fb9f1e0be"><g class="fills" id="fills-5fff5482-f1a7-80f0-8008-201fb9f1e0be"><path d="M40.16015625,49.8095703125L40.16015625,56.475830078125" fill="none" stroke-linejoin="round" stroke-linecap="round" style="fill: none;"/></g><g fill="none" stroke-linejoin="round" stroke-linecap="round" id="strokes-8d2d9bde-2cf3-80bf-8008-29b88164b5b7-5fff5482-f1a7-80f0-8008-201fb9f1e0be" class="strokes"><g class="stroke-shape"><path d="M40.16015625,49.8095703125L40.16015625,56.475830078125" style="fill: none; stroke-width: 2; stroke: rgb(205, 205, 205); stroke-opacity: 1;"/></g></g></g><g id="shape-5fff5482-f1a7-80f0-8008-201fb9f1e0bf"><g class="fills" id="fills-5fff5482-f1a7-80f0-8008-201fb9f1e0bf"><path d="M20.16015625,19.8095703125L30.16015625,29.8095703125" fill="none" stroke-linejoin="round" stroke-linecap="round" style="fill: none;"/></g><g fill="none" stroke-linejoin="round" stroke-linecap="round" id="strokes-8d2d9bde-2cf3-80bf-8008-29b88164ee78-5fff5482-f1a7-80f0-8008-201fb9f1e0bf" class="strokes"><g class="stroke-shape"><path d="M20.16015625,19.8095703125L30.16015625,29.8095703125" style="fill: none; stroke-width: 2; stroke: rgb(205, 205, 205); stroke-opacity: 1;"/></g></g></g><g id="shape-5fff5482-f1a7-80f0-8008-201fb9f1e0c0"><g class="fills" id="fills-5fff5482-f1a7-80f0-8008-201fb9f1e0c0"><path d="M50.16015625,49.8095703125L60.16015625,59.8095703125" fill="none" stroke-linejoin="round" stroke-linecap="round" style="fill: none;"/></g><g fill="none" stroke-linejoin="round" stroke-linecap="round" id="strokes-8d2d9bde-2cf3-80bf-8008-29b88165500f-5fff5482-f1a7-80f0-8008-201fb9f1e0c0" class="strokes"><g class="stroke-shape"><path d="M50.16015625,49.8095703125L60.16015625,59.8095703125" style="fill: none; stroke-width: 2; stroke: rgb(205, 205, 205); stroke-opacity: 1;"/></g></g></g></g></g></g></g></g></g></g></svg>