<svg width="80" xmlns="http://www.w3.org/2000/svg" height="80" id="screenshot-5fff5482-f1a7-80f0-8008-2020bd1ad7fd" viewBox="0 0 80 80" xmlns:xlink="http://www.w3.org/1999/xlink" fill="none" version="1.1"><g id="shape-5fff5482-f1a7-80f0-8008-2020bd1ad7fd"><defs><clipPath id="frame-clip-5fff5482-f1a7-80f0-8008-2020bd1ad7fd-render-1" class="frame-clip frame-clip-def"><rect rx="0" ry="0" x="0" y="0" width="80" height="80" transform="matrix(1.000000, 0.000000, 0.000000, 1.000000, 0.000000, 0.000000)"/></clipPath></defs><g class="frame-container-wrapper"><g class="frame-container-blur"><g class="frame-container-shadows"><g clip-path="url(#frame-clip-5fff5482-f1a7-80f0-8008-2020bd1ad7fd-render-1)" fill="none"><g class="fills" id="fills-5fff5482-f1a7-80f0-8008-2020bd1ad7fd"><rect rx="0" ry="0" x="0" y="0" width="80" height="80" transform="matrix(1.000000, 0.000000, 0.000000, 1.000000, 0.000000, 0.000000)" class="frame-background"/></g><g class="frame-children"><g id="shape-5fff5482-f1a7-80f0-8008-2020bd1ad7fe" width="24" class="icon icon-tabler icons-tabler-outline icon-tabler-license" height="24" rx="0" ry="0" style="fill: rgb(0, 0, 0);"><g id="shape-5fff5482-f1a7-80f0-8008-2020bd1ad7ff" style="display: none;"><g class="fills" id="fills-5fff5482-f1a7-80f0-8008-2020bd1ad7ff"><rect width="80" height="80" x="0.16064769172953675" stroke-linejoin="round" transform="matrix(1.000000, 0.000000, 0.000000, 1.000000, 0.000000, 0.000000)" style="fill: none;" ry="0" fill="none" stroke-linecap="round" rx="0" y="-0.19038699295106198"/></g><g fill="none" stroke-linejoin="round" stroke-linecap="round" id="strokes-09161f76-540e-801c-8008-29b8962d87ca-5fff5482-f1a7-80f0-8008-2020bd1ad7ff" class="strokes"><g class="inner-stroke-shape" transform="matrix(1.000000, 0.000000, 0.000000, 1.000000, 0.000000, 0.000000)"><defs><clipPath id="inner-stroke-render-3-5fff5482-f1a7-80f0-8008-2020bd1ad7ff-0"><use href="#stroke-shape-render-3-5fff5482-f1a7-80f0-8008-2020bd1ad7ff-0"/></clipPath><rect rx="0" ry="0" x="0.16064769172953675" y="-0.19038699295106198" width="80" height="80" id="stroke-shape-render-3-5fff5482-f1a7-80f0-8008-2020bd1ad7ff-0" style="fill: none; stroke-width: 4; stroke: rgb(205, 205, 205); stroke-opacity: 1;"/></defs><use href="#stroke-shape-render-3-5fff5482-f1a7-80f0-8008-2020bd1ad7ff-0" clip-path="url('#inner-stroke-render-3-5fff5482-f1a7-80f0-8008-2020bd1ad7ff-0')"/></g></g></g><g id="shape-5fff5482-f1a7-80f0-8008-2020bd1ad800"><g class="fills" id="fills-5fff5482-f1a7-80f0-8008-2020bd1ad800"><path d="M0.16015625,-0.1904296875L80.16015625,-0.1904296875L80.16015625,79.8095703125L0.16015625,79.8095703125L0.16015625,-0.1904296875" stroke="none" fill="none" stroke-linejoin="round" stroke-linecap="round" stroke-width="2" style="fill: none;"/></g></g><g id="shape-5fff5482-f1a7-80f0-8008-2020bd1ad801"><g class="fills" id="fills-5fff5482-f1a7-80f0-8008-2020bd1ad801"><path d="M50.16015625,69.8095703125L20.16015625,69.8095703125C14.638671875,69.8095703125,10.16015625,65.331787109375,10.16015625,59.8095703125L10.16015625,56.475830078125L43.490234375,56.475830078125L43.490234375,63.142822265625C43.490234375,66.824462890625,46.474609375,69.8095703125,50.16015625,69.8095703125C53.84375,69.8095703125,56.826171875,66.824462890625,56.826171875,63.142822265625L56.826171875,16.475830078125C56.826171875,12.794189453125,59.806640625,9.8095703125,63.490234375,9.8095703125C67.177734375,9.8095703125,70.16015625,12.794189453125,70.16015625,16.475830078125C70.16015625,20.157470703125,67.177734375,23.142822265625,63.490234375,23.142822265625L56.826171875,23.142822265625M63.490234375,9.8095703125L26.826171875,9.8095703125C21.302734375,9.8095703125,16.826171875,14.286865234375,16.826171875,19.8095703125L16.826171875,56.475830078125" fill="none" stroke-linejoin="round" stroke-linecap="round" style="fill: none;"/></g><g fill="none" stroke-linejoin="round" stroke-linecap="round" id="strokes-09161f76-540e-801c-8008-29b8962f506f-5fff5482-f1a7-80f0-8008-2020bd1ad801" class="strokes"><g class="stroke-shape"><path d="M50.16015625,69.8095703125L20.16015625,69.8095703125C14.638671875,69.8095703125,10.16015625,65.331787109375,10.16015625,59.8095703125L10.16015625,56.475830078125L43.490234375,56.475830078125L43.490234375,63.142822265625C43.490234375,66.824462890625,46.474609375,69.8095703125,50.16015625,69.8095703125C53.84375,69.8095703125,56.826171875,66.824462890625,56.826171875,63.142822265625L56.826171875,16.475830078125C56.826171875,12.794189453125,59.806640625,9.8095703125,63.490234375,9.8095703125C67.177734375,9.8095703125,70.16015625,12.794189453125,70.16015625,16.475830078125C70.16015625,20.157470703125,67.177734375,23.142822265625,63.490234375,23.142822265625L56.826171875,23.142822265625M63.490234375,9.8095703125L26.826171875,9.8095703125C21.302734375,9.8095703125,16.826171875,14.286865234375,16.826171875,19.8095703125L16.826171875,56.475830078125" style="fill: none; stroke-width: 2; stroke: rgb(205, 205, 205); stroke-opacity: 1;"/></g></g></g><g id="shape-5fff5482-f1a7-80f0-8008-2020bd1ad802"><g class="fills" id="fills-5fff5482-f1a7-80f0-8008-2020bd1ad802"><path d="M30.16015625,23.142822265625L43.490234375,23.142822265625" fill="none" stroke-linejoin="round" stroke-linecap="round" style="fill: none;"/></g><g fill="none" stroke-linejoin="round" stroke-linecap="round" id="strokes-09161f76-540e-801c-8008-29b8962fdece-5fff5482-f1a7-80f0-8008-2020bd1ad802" class="strokes"><g class="stroke-shape"><path d="M30.16015625,23.142822265625L43.490234375,23.142822265625" style="fill: none; stroke-width: 2; stroke: rgb(205, 205, 205); stroke-opacity: 1;"/></g></g></g><g id="shape-5fff5482-f1a7-80f0-8008-2020bd1ad803"><g class="fills" id="fills-5fff5482-f1a7-80f0-8008-2020bd1ad803"><path d="M30.16015625,36.475830078125L43.490234375,36.475830078125" fill="none" stroke-linejoin="round" stroke-linecap="round" style="fill: none;"/></g><g fill="none" stroke-linejoin="round" stroke-linecap="round" id="strokes-09161f76-540e-801c-8008-29b8963025fd-5fff5482-f1a7-80f0-8008-2020bd1ad803" class="strokes"><g class="stroke-shape"><path d="M30.16015625,36.475830078125L43.490234375,36.475830078125" style="fill: none; stroke-width: 2; stroke: rgb(205, 205, 205); stroke-opacity: 1;"/></g></g></g></g></g></g></g></g></g></g></svg>