<svg width="80" xmlns="http://www.w3.org/2000/svg" height="80" id="screenshot-5fff5482-f1a7-80f0-8008-201ed89ea61f" viewBox="0 0 80 80" xmlns:xlink="http://www.w3.org/1999/xlink" fill="none" version="1.1"><g id="shape-5fff5482-f1a7-80f0-8008-201ed89ea61f"><defs><clipPath id="frame-clip-5fff5482-f1a7-80f0-8008-201ed89ea61f-render-1" class="frame-clip frame-clip-def"><rect rx="0" ry="0" x="0" y="0" width="80" height="80" transform="matrix(1.000000, 0.000000, 0.000000, 1.000000, 0.000000, 0.000000)"/></clipPath></defs><g class="frame-container-wrapper"><g class="frame-container-blur"><g class="frame-container-shadows"><g clip-path="url(#frame-clip-5fff5482-f1a7-80f0-8008-201ed89ea61f-render-1)" fill="none"><g class="fills" id="fills-5fff5482-f1a7-80f0-8008-201ed89ea61f"><rect rx="0" ry="0" x="0" y="0" width="80" height="80" transform="matrix(1.000000, 0.000000, 0.000000, 1.000000, 0.000000, 0.000000)" class="frame-background"/></g><g class="frame-children"><g id="shape-5fff5482-f1a7-80f0-8008-201ed89ea620" width="24" class="icon icon-tabler icons-tabler-outline icon-tabler-brand-apple" height="24" rx="0" ry="0" style="fill: rgb(0, 0, 0);"><g id="shape-5fff5482-f1a7-80f0-8008-201ed89ea621" style="display: none;"><g class="fills" id="fills-5fff5482-f1a7-80f0-8008-201ed89ea621"><rect width="80" height="80" x="0.16064769172953675" stroke-linejoin="round" transform="matrix(1.000000, 0.000000, 0.000000, 1.000000, 0.000000, 0.000000)" style="fill: none;" ry="0" fill="none" stroke-linecap="round" rx="0" y="-0.19038699295106198"/></g><g fill="none" stroke-linejoin="round" stroke-linecap="round" id="strokes-26c6f19f-2ce0-80a6-8008-29b8753e21ea-5fff5482-f1a7-80f0-8008-201ed89ea621" class="strokes"><g class="inner-stroke-shape" transform="matrix(1.000000, 0.000000, 0.000000, 1.000000, 0.000000, 0.000000)"><defs><clipPath id="inner-stroke-render-3-5fff5482-f1a7-80f0-8008-201ed89ea621-0"><use href="#stroke-shape-render-3-5fff5482-f1a7-80f0-8008-201ed89ea621-0"/></clipPath><rect rx="0" ry="0" x="0.16064769172953675" y="-0.19038699295106198" width="80" height="80" id="stroke-shape-render-3-5fff5482-f1a7-80f0-8008-201ed89ea621-0" style="fill: none; stroke-width: 4; stroke: rgb(205, 205, 205); stroke-opacity: 1;"/></defs><use href="#stroke-shape-render-3-5fff5482-f1a7-80f0-8008-201ed89ea621-0" clip-path="url('#inner-stroke-render-3-5fff5482-f1a7-80f0-8008-201ed89ea621-0')"/></g></g></g><g id="shape-5fff5482-f1a7-80f0-8008-201ed89ea622"><g class="fills" id="fills-5fff5482-f1a7-80f0-8008-201ed89ea622"><path d="M0.16015625,-0.1904296875L80.16015625,-0.1904296875L80.16015625,79.8095703125L0.16015625,79.8095703125L0.16015625,-0.1904296875" stroke="none" fill="none" stroke-linejoin="round" stroke-linecap="round" stroke-width="2" style="fill: none;"/></g></g><g id="shape-5fff5482-f1a7-80f0-8008-201ed89ea623"><g class="fills" id="fills-5fff5482-f1a7-80f0-8008-201ed89ea623"><path d="M27.775390625,23.169677734375C17.060546875,23.169677734375,13.494140625,33.93603515625,13.494140625,42.90283203125C13.494140625,53.666259765625,20.640625,69.8095703125,27.775390625,69.8095703125C31.65625,69.642822265625,33.779296875,68.015869140625,38.494140625,68.015869140625C43.181640625,68.015869140625,43.84375,69.8095703125,49.20703125,69.8095703125C54.560546875,69.8095703125,63.494140625,59.0458984375,63.494140625,51.872314453125C63.388671875,51.835693359375,54.666015625,50.42626953125,54.560546875,41.10595703125C54.494140625,33.32275390625,63.19140625,30.509521484375,63.494140625,30.345947265625C59.83203125,24.99267578125,52.95703125,23.30322265625,50.994140625,23.169677734375C45.875,22.769287109375,40.888671875,26.759521484375,38.494140625,26.759521484375C36.056640625,26.759521484375,31.70703125,23.169677734375,27.775390625,23.169677734375" fill="none" stroke-linejoin="round" stroke-linecap="round" style="fill: none;"/></g><g fill="none" stroke-linejoin="round" stroke-linecap="round" id="strokes-26c6f19f-2ce0-80a6-8008-29b8753f9231-5fff5482-f1a7-80f0-8008-201ed89ea623" class="strokes"><g class="inner-stroke-shape"><defs><clipPath id="inner-stroke-render-5-5fff5482-f1a7-80f0-8008-201ed89ea623-0"><use href="#stroke-shape-render-5-5fff5482-f1a7-80f0-8008-201ed89ea623-0"/></clipPath><path d="M27.775390625,23.169677734375C17.060546875,23.169677734375,13.494140625,33.93603515625,13.494140625,42.90283203125C13.494140625,53.666259765625,20.640625,69.8095703125,27.775390625,69.8095703125C31.65625,69.642822265625,33.779296875,68.015869140625,38.494140625,68.015869140625C43.181640625,68.015869140625,43.84375,69.8095703125,49.20703125,69.8095703125C54.560546875,69.8095703125,63.494140625,59.0458984375,63.494140625,51.872314453125C63.388671875,51.835693359375,54.666015625,50.42626953125,54.560546875,41.10595703125C54.494140625,33.32275390625,63.19140625,30.509521484375,63.494140625,30.345947265625C59.83203125,24.99267578125,52.95703125,23.30322265625,50.994140625,23.169677734375C45.875,22.769287109375,40.888671875,26.759521484375,38.494140625,26.759521484375C36.056640625,26.759521484375,31.70703125,23.169677734375,27.775390625,23.169677734375" id="stroke-shape-render-5-5fff5482-f1a7-80f0-8008-201ed89ea623-0" style="fill: none; stroke-width: 4; stroke: rgb(205, 205, 205); stroke-opacity: 1;"/></defs><use href="#stroke-shape-render-5-5fff5482-f1a7-80f0-8008-201ed89ea623-0" clip-path="url('#inner-stroke-render-5-5fff5482-f1a7-80f0-8008-201ed89ea623-0')"/></g></g></g><g id="shape-5fff5482-f1a7-80f0-8008-201ed89ea624"><g class="fills" id="fills-5fff5482-f1a7-80f0-8008-201ed89ea624"><path d="M40.16015625,13.142822265625C43.84375,13.142822265625,46.826171875,10.157958984375,46.826171875,6.476318359375C43.140625,6.476318359375,40.16015625,9.461181640625,40.16015625,13.142822265625" fill="none" stroke-linejoin="round" stroke-linecap="round" style="fill: none;"/></g><g fill="none" stroke-linejoin="round" stroke-linecap="round" id="strokes-26c6f19f-2ce0-80a6-8008-29b875401306-5fff5482-f1a7-80f0-8008-201ed89ea624" class="strokes"><g class="inner-stroke-shape"><defs><clipPath id="inner-stroke-render-6-5fff5482-f1a7-80f0-8008-201ed89ea624-0"><use href="#stroke-shape-render-6-5fff5482-f1a7-80f0-8008-201ed89ea624-0"/></clipPath><path d="M40.16015625,13.142822265625C43.84375,13.142822265625,46.826171875,10.157958984375,46.826171875,6.476318359375C43.140625,6.476318359375,40.16015625,9.461181640625,40.16015625,13.142822265625" id="stroke-shape-render-6-5fff5482-f1a7-80f0-8008-201ed89ea624-0" style="fill: none; stroke-width: 4; stroke: rgb(205, 205, 205); stroke-opacity: 1;"/></defs><use href="#stroke-shape-render-6-5fff5482-f1a7-80f0-8008-201ed89ea624-0" clip-path="url('#inner-stroke-render-6-5fff5482-f1a7-80f0-8008-201ed89ea624-0')"/></g></g></g></g></g></g></g></g></g></g></svg>