<svg width="80" xmlns="http://www.w3.org/2000/svg" height="80" id="screenshot-cea7a17f-99ee-80ce-8008-20fd71146cb9" viewBox="0 0 80 80" xmlns:xlink="http://www.w3.org/1999/xlink" fill="none" version="1.1"><g id="shape-cea7a17f-99ee-80ce-8008-20fd71146cb9"><defs><clipPath id="frame-clip-cea7a17f-99ee-80ce-8008-20fd71146cb9-render-1" class="frame-clip frame-clip-def"><rect rx="0" ry="0" x="0" y="0" width="80" height="80" transform="matrix(1.000000, 0.000000, 0.000000, 1.000000, 0.000000, 0.000000)"/></clipPath></defs><g class="frame-container-wrapper"><g class="frame-container-blur"><g class="frame-container-shadows"><g clip-path="url(#frame-clip-cea7a17f-99ee-80ce-8008-20fd71146cb9-render-1)" fill="none"><g class="fills" id="fills-cea7a17f-99ee-80ce-8008-20fd71146cb9"><rect rx="0" ry="0" x="0" y="0" width="80" height="80" transform="matrix(1.000000, 0.000000, 0.000000, 1.000000, 0.000000, 0.000000)" class="frame-background"/></g><g class="frame-children"><g id="shape-cea7a17f-99ee-80ce-8008-20fd7115442d" width="800" height="800" rx="0" ry="0" style="fill: rgb(0, 0, 0);"><defs><clipPath id="render-2-a" class="svg-def" transform="matrix(1.000000, 0.000000, 0.000000, 1.000000, 0.000000, 0.000000)"><rect width="28" height="20" rx="2" fill="#fff"/></clipPath><mask y1="0" width="28" maskUnits="userSpaceOnUse" x1="0" height="20" class="svg-def" x="0" id="render-2-b" style="mask-type: alpha;" data-old-y="0" data-old-width="28" data-old-x="0" y="0" x2="28" y2="20" data-old-height="20"><g class="svg-mask-wrapper" transform="matrix(1.000000, 0.000000, 0.000000, 1.000000, 0.000000, 0.000000)"><rect x=".25" y=".25" width="27.5" height="19.5" rx="1.75" fill="#fff" stroke="#fff" stroke-width=".5"/></g></mask></defs><g id="shape-cea7a17f-99ee-80ce-8008-20fd7115442e" style="display: none;"><g class="fills" id="fills-cea7a17f-99ee-80ce-8008-20fd7115442e"><rect width="80" height="80" x="0.0827167443712824" transform="matrix(1.000000, 0.000000, 0.000000, 1.000000, 0.000000, 0.000000)" style="fill: none;" ry="0" fill="none" rx="0" y="-3.54524541774299"/></g></g><g id="shape-cea7a17f-99ee-80ce-8008-20fd7115442f" clip-path="url(#render-4-a)" rx="0" ry="0" style="fill: rgb(0, 0, 0);"><defs><clipPath id="render-4-a" class="svg-def" transform="matrix(2.857143, 0.000000, 0.000000, 2.857143, 0.082717, 7.883326)"><rect width="28" height="20" rx="2" fill="#fff"/></clipPath></defs><g id="shape-cea7a17f-99ee-80ce-8008-20fd71154430"><g class="fills" id="fills-cea7a17f-99ee-80ce-8008-20fd71154430"><rect rx="1.75" ry="1.75" x="0.7970024586466025" y="8.597611725113893" transform="matrix(1.000000, 0.000000, 0.000000, 1.000000, 0.000000, 0.000000)" width="78.57142857143481" height="55.714285714286234" style="fill: rgb(255, 255, 255);"/></g><g id="strokes-43dea3b5-df88-8067-8008-29b90766b3f9-cea7a17f-99ee-80ce-8008-20fd71154430" class="strokes"><g class="stroke-shape"><rect rx="1.75" ry="1.75" x="0.7970024586466025" y="8.597611725113893" transform="matrix(1.000000, 0.000000, 0.000000, 1.000000, 0.000000, 0.000000)" width="78.57142857143481" height="55.714285714286234" style="fill: none; stroke-width: 0.5; stroke: rgb(245, 245, 245); stroke-opacity: 1;"/></g></g></g><g id="shape-cea7a17f-99ee-80ce-8008-20fd71154431" mask="url(#render-6-b)" rx="0" ry="0" style="fill: rgb(0, 0, 0);"><defs><mask y1="7.883326010829478" width="80" maskUnits="userSpaceOnUse" x1="0.0827167443712824" height="57.14285714285688" class="svg-def" x="0.0827167443712824" id="render-6-b" style="mask-type: alpha;" data-old-y="7.883326010829478" data-old-width="80" data-old-x="0.0827167443712824" y="7.883326010829478" x2="80.08271674437128" y2="65.02618315368636" data-old-height="57.14285714285688"><g class="svg-mask-wrapper" transform="matrix(2.857143, 0.000000, 0.000000, 2.857143, 0.082717, 7.883326)"><rect x=".25" y=".25" width="27.5" height="19.5" rx="1.75" fill="#fff" stroke="#fff" stroke-width=".5"/></g></mask></defs><g id="shape-cea7a17f-99ee-80ce-8008-20fd71154432"><g class="fills" id="fills-cea7a17f-99ee-80ce-8008-20fd71154432"><path d="M0.080078125,26.931396484375L80.080078125,26.931396484375L80.080078125,7.883544921875L0.080078125,7.883544921875L0.080078125,26.931396484375Z" fill-rule="evenodd" clip-rule="evenodd" style="fill: rgb(4, 170, 200);"/></g></g><g id="shape-cea7a17f-99ee-80ce-8008-20fd71154433"><g class="fills" id="fills-cea7a17f-99ee-80ce-8008-20fd71154433"><path d="M0.080078125,65.0263671875L80.080078125,65.0263671875L80.080078125,45.978515625L0.080078125,45.978515625L0.080078125,65.0263671875Z" fill-rule="evenodd" clip-rule="evenodd" style="fill: rgb(35, 200, 64);"/></g></g><g id="shape-cea7a17f-99ee-80ce-8008-20fd71154434"><g class="fills" id="fills-cea7a17f-99ee-80ce-8008-20fd71154434"><path d="M13.41796875,23.121337890625C14.58984375,23.121337890625,15.68359375,22.76708984375,16.587890625,22.15869140625C16.486328125,22.165771484375,16.375,22.169189453125,16.275390625,22.169189453125C13.640625,22.169189453125,11.509765625,20.03759765625,11.509765625,17.4072265625C11.509765625,14.77734375,13.640625,12.645751953125,16.275390625,12.645751953125C16.375,12.645751953125,16.486328125,12.649169921875,16.587890625,12.65625C15.68359375,12.0478515625,14.58984375,11.69287109375,13.41796875,11.69287109375C10.259765625,11.69287109375,7.703125,14.25146484375,7.703125,17.4072265625C7.703125,20.5634765625,10.259765625,23.121337890625,13.41796875,23.121337890625ZM22.9375,21.217041015625C22.9375,22.26904296875,22.08984375,23.121337890625,21.029296875,23.121337890625C19.98046875,23.121337890625,19.1328125,22.26904296875,19.1328125,21.217041015625C19.1328125,20.165283203125,19.98046875,19.31201171875,21.029296875,19.31201171875C22.08984375,19.31201171875,22.9375,20.165283203125,22.9375,21.217041015625ZM28.65234375,15.5029296875C29.701171875,15.5029296875,30.560546875,14.649658203125,30.560546875,13.597900390625C30.560546875,12.5458984375,29.701171875,11.69287109375,28.65234375,11.69287109375C27.603515625,11.69287109375,26.744140625,12.5458984375,26.744140625,13.597900390625C26.744140625,14.649658203125,27.603515625,15.5029296875,28.65234375,15.5029296875ZM38.171875,13.597900390625C38.171875,14.649658203125,37.32421875,15.5029296875,36.275390625,15.5029296875C35.21484375,15.5029296875,34.3671875,14.649658203125,34.3671875,13.597900390625C34.3671875,12.5458984375,35.21484375,11.69287109375,36.275390625,11.69287109375C37.32421875,11.69287109375,38.171875,12.5458984375,38.171875,13.597900390625ZM36.275390625,23.121337890625C37.32421875,23.121337890625,38.171875,22.26904296875,38.171875,21.217041015625C38.171875,20.165283203125,37.32421875,19.31201171875,36.275390625,19.31201171875C35.21484375,19.31201171875,34.3671875,20.165283203125,34.3671875,21.217041015625C34.3671875,22.26904296875,35.21484375,23.121337890625,36.275390625,23.121337890625ZM30.560546875,21.217041015625C30.560546875,22.26904296875,29.701171875,23.121337890625,28.65234375,23.121337890625C27.603515625,23.121337890625,26.744140625,22.26904296875,26.744140625,21.217041015625C26.744140625,20.165283203125,27.603515625,19.31201171875,28.65234375,19.31201171875C29.701171875,19.31201171875,30.560546875,20.165283203125,30.560546875,21.217041015625Z" fill-rule="evenodd" clip-rule="evenodd" style="fill: rgb(255, 255, 255);"/></g></g></g></g><g id="shape-cea7a17f-99ee-80ce-8008-20fd71154435"><defs fill="none" style="fill: rgb(0, 0, 0);"/></g></g></g></g></g></g></g></g></svg>