<svg width="80" xmlns="http://www.w3.org/2000/svg" height="80" id="screenshot-cea7a17f-99ee-80ce-8008-20fc66d1c1f9" viewBox="0 0 80 80" xmlns:xlink="http://www.w3.org/1999/xlink" fill="none" version="1.1"><g id="shape-cea7a17f-99ee-80ce-8008-20fc66d1c1f9"><defs><clipPath id="frame-clip-cea7a17f-99ee-80ce-8008-20fc66d1c1f9-render-1" class="frame-clip frame-clip-def"><rect rx="0" ry="0" x="0" y="0" width="80" height="80" transform="matrix(1.000000, 0.000000, 0.000000, 1.000000, 0.000000, 0.000000)"/></clipPath></defs><g class="frame-container-wrapper"><g class="frame-container-blur"><g class="frame-container-shadows"><g clip-path="url(#frame-clip-cea7a17f-99ee-80ce-8008-20fc66d1c1f9-render-1)" fill="none"><g class="fills" id="fills-cea7a17f-99ee-80ce-8008-20fc66d1c1f9"><rect rx="0" ry="0" x="0" y="0" width="80" height="80" transform="matrix(1.000000, 0.000000, 0.000000, 1.000000, 0.000000, 0.000000)" class="frame-background"/></g><g class="frame-children"><g id="shape-cea7a17f-99ee-80ce-8008-20fc66d2f84e" width="800" height="800" rx="0" ry="0" style="fill: rgb(0, 0, 0);"><defs><linearGradient x1="1.333" y1="1.333" x2="1.333" y2="8" id="render-2-d" gradientUnits="userSpaceOnUse" class="svg-def" gradientTransform="matrix(1.000000, 0.000000, 0.000000, 1.000000, 0.000000, 0.000000)"><stop stop-color="#fff"/><stop offset="1" stop-color="#F0F0F0"/></linearGradient><clipPath id="render-2-a" class="svg-def" transform="matrix(1.000000, 0.000000, 0.000000, 1.000000, 0.000000, 0.000000)"><rect width="28" height="20" rx="2" fill="#fff"/></clipPath><mask y1="0" width="28" maskUnits="userSpaceOnUse" x1="0" height="20" class="svg-def" x="0" id="render-2-b" style="mask-type: alpha;" data-old-y="0" data-old-width="28" data-old-x="0" y="0" x2="28" y2="20" data-old-height="20"><g class="svg-mask-wrapper" transform="matrix(1.000000, 0.000000, 0.000000, 1.000000, 0.000000, 0.000000)"><rect width="28" height="20" rx="2" fill="#fff"/></g></mask><filter y1="1.333" filterUnits="userSpaceOnUse" width="9.333" x1="1.333" height="7.667" color-interpolation-filters="sRGB" class="svg-def" x="1.333" id="render-2-c" data-old-y="1.333" data-old-width="9.333" data-old-x="1.333" y="1.333" x2="10.666" y2="9" data-old-height="7.667"><feFlood flood-opacity="0" result="BackgroundImageFix"/><feColorMatrix in="SourceAlpha" values="0 0 0 0 0 0 0 0 0 0 0 0 0 0 0 0 0 0 127 0" result="hardAlpha"/><feOffset dy="1"/><feColorMatrix values="0 0 0 0 0 0 0 0 0 0 0 0 0 0 0 0 0 0 0.06 0"/><feBlend in2="BackgroundImageFix" result="effect1_dropShadow_503_3486"/><feBlend in="SourceGraphic" in2="effect1_dropShadow_503_3486" result="shape"/></filter></defs><g id="shape-cea7a17f-99ee-80ce-8008-20fc66d2f84f" style="display: none;"><g class="fills" id="fills-cea7a17f-99ee-80ce-8008-20fc66d2f84f"><rect width="80" height="80" x="0.0827167443712824" transform="matrix(1.000000, 0.000000, 0.000000, 1.000000, 0.000000, 0.000000)" style="fill: none;" ry="0" fill="none" rx="0" y="-3.54524541774299"/></g></g><g id="shape-cea7a17f-99ee-80ce-8008-20fc66d2f850" clip-path="url(#render-4-a)" rx="0" ry="0" style="fill: rgb(0, 0, 0);"><defs><clipPath id="render-4-a" class="svg-def" transform="matrix(2.857143, 0.000000, 0.000000, 2.857143, 0.082717, 7.883326)"><rect width="28" height="20" rx="2" fill="#fff"/></clipPath></defs><g id="shape-cea7a17f-99ee-80ce-8008-20fc66d2f851"><g class="fills" id="fills-cea7a17f-99ee-80ce-8008-20fc66d2f851"><rect rx="2" ry="2" x="0.0827167443712824" y="7.883326010829478" transform="matrix(1.000000, 0.000000, 0.000000, 1.000000, 0.000000, 0.000000)" width="80" height="57.14285714285688" style="fill: rgb(255, 255, 255);"/></g></g><g id="shape-cea7a17f-99ee-80ce-8008-20fc66d2f852" mask="url(#render-6-b)" rx="0" ry="0" style="fill: rgb(0, 0, 0);"><defs><mask y1="7.883326010829478" width="80" maskUnits="userSpaceOnUse" x1="0.0827167443712824" height="57.14285714285688" class="svg-def" x="0.0827167443712824" id="render-6-b" style="mask-type: alpha;" data-old-y="7.883326010829478" data-old-width="80" data-old-x="0.0827167443712824" y="7.883326010829478" x2="80.08271674437128" y2="65.02618315368636" data-old-height="57.14285714285688"><g class="svg-mask-wrapper" transform="matrix(2.857143, 0.000000, 0.000000, 2.857143, 0.082717, 7.883326)"><rect width="28" height="20" rx="2" fill="#fff"/></g></mask></defs><g id="shape-cea7a17f-99ee-80ce-8008-20fc66d2f853"><g class="fills" id="fills-cea7a17f-99ee-80ce-8008-20fc66d2f853"><path d="M80.080078125,7.883544921875L0.080078125,7.883544921875L0.080078125,11.69287109375L80.080078125,11.69287109375L80.080078125,7.883544921875ZM80.080078125,15.5029296875L0.080078125,15.5029296875L0.080078125,19.31201171875L80.080078125,19.31201171875L80.080078125,15.5029296875ZM0.080078125,23.121337890625L80.080078125,23.121337890625L80.080078125,26.931396484375L0.080078125,26.931396484375L0.080078125,23.121337890625ZM80.080078125,30.74072265625L0.080078125,30.74072265625L0.080078125,34.550048828125L80.080078125,34.550048828125L80.080078125,30.74072265625ZM0.080078125,38.35986328125L80.080078125,38.35986328125L80.080078125,42.169189453125L0.080078125,42.169189453125L0.080078125,38.35986328125ZM80.080078125,45.978515625L0.080078125,45.978515625L0.080078125,49.78857421875L80.080078125,49.78857421875L80.080078125,45.978515625ZM0.080078125,53.597900390625L80.080078125,53.597900390625L80.080078125,57.4072265625L0.080078125,57.4072265625L0.080078125,53.597900390625ZM80.080078125,61.217041015625L0.080078125,61.217041015625L0.080078125,65.0263671875L80.080078125,65.0263671875L80.080078125,61.217041015625Z" fill-rule="evenodd" clip-rule="evenodd" style="fill: rgb(208, 47, 68);"/></g></g><g id="shape-cea7a17f-99ee-80ce-8008-20fc66d2f854"><g class="fills" id="fills-cea7a17f-99ee-80ce-8008-20fc66d2f854"><rect rx="0" ry="0" x="0.0827167443712824" y="7.883326010829478" transform="matrix(1.000000, 0.000000, 0.000000, 1.000000, 0.000000, 0.000000)" width="34.28571428571013" height="26.665714285714785" style="fill: rgb(70, 70, 127);"/></g></g><g id="shape-cea7a17f-99ee-80ce-8008-20fc66d2f855" filter="url(#render-9-c)" rx="0" ry="0" style="fill: rgb(0, 0, 0);"><defs><filter y1="11.691897439399607" filterUnits="userSpaceOnUse" width="26.665714285714287" x1="3.8912881729323168" height="21.905714285716076" color-interpolation-filters="sRGB" class="svg-def" x="3.8912881729323168" id="render-9-c" data-old-y="11.691897439399607" data-old-width="26.665714285714287" data-old-x="3.8912881729323168" y="11.691897439399607" x2="30.557002458646604" y2="33.597611725115684" data-old-height="21.905714285716076"><feFlood flood-opacity="0" result="BackgroundImageFix"/><feColorMatrix in="SourceAlpha" values="0 0 0 0 0 0 0 0 0 0 0 0 0 0 0 0 0 0 127 0" result="hardAlpha"/><feOffset dy="1"/><feColorMatrix values="0 0 0 0 0 0 0 0 0 0 0 0 0 0 0 0 0 0 0.06 0"/><feBlend in2="BackgroundImageFix" result="effect1_dropShadow_503_3486"/><feBlend in="SourceGraphic" in2="effect1_dropShadow_503_3486" result="shape"/></filter></defs><g id="shape-cea7a17f-99ee-80ce-8008-20fc66d2f856"><defs><linearGradient x1="1.333" y1="1.333" x2="1.333" y2="8" id="render-10-d" gradientUnits="userSpaceOnUse" gradientTransform="matrix(2.857143, 0.000000, 0.000000, 2.857143, 0.082717, 7.883326)"><stop stop-color="#fff"/><stop offset="1" stop-color="#F0F0F0"/></linearGradient></defs><g class="fills" id="fills-cea7a17f-99ee-80ce-8008-20fc66d2f856"><path d="M7.703125,13.597900390625C7.703125,14.649658203125,6.84375,15.5029296875,5.794921875,15.5029296875C4.74609375,15.5029296875,3.88671875,14.649658203125,3.88671875,13.597900390625C3.88671875,12.5458984375,4.74609375,11.69287109375,5.794921875,11.69287109375C6.84375,11.69287109375,7.703125,12.5458984375,7.703125,13.597900390625ZM15.314453125,13.597900390625C15.314453125,14.649658203125,14.466796875,15.5029296875,13.41796875,15.5029296875C12.357421875,15.5029296875,11.509765625,14.649658203125,11.509765625,13.597900390625C11.509765625,12.5458984375,12.357421875,11.69287109375,13.41796875,11.69287109375C14.466796875,11.69287109375,15.314453125,12.5458984375,15.314453125,13.597900390625ZM21.029296875,15.5029296875C22.08984375,15.5029296875,22.9375,14.649658203125,22.9375,13.597900390625C22.9375,12.5458984375,22.08984375,11.69287109375,21.029296875,11.69287109375C19.98046875,11.69287109375,19.1328125,12.5458984375,19.1328125,13.597900390625C19.1328125,14.649658203125,19.98046875,15.5029296875,21.029296875,15.5029296875ZM30.560546875,13.597900390625C30.560546875,14.649658203125,29.701171875,15.5029296875,28.65234375,15.5029296875C27.603515625,15.5029296875,26.744140625,14.649658203125,26.744140625,13.597900390625C26.744140625,12.5458984375,27.603515625,11.69287109375,28.65234375,11.69287109375C29.701171875,11.69287109375,30.560546875,12.5458984375,30.560546875,13.597900390625ZM9.6015625,19.31201171875C10.66015625,19.31201171875,11.509765625,18.458984375,11.509765625,17.4072265625C11.509765625,16.355224609375,10.66015625,15.5029296875,9.6015625,15.5029296875C8.55078125,15.5029296875,7.703125,16.355224609375,7.703125,17.4072265625C7.703125,18.458984375,8.55078125,19.31201171875,9.6015625,19.31201171875ZM19.1328125,17.4072265625C19.1328125,18.458984375,18.2734375,19.31201171875,17.22265625,19.31201171875C16.173828125,19.31201171875,15.314453125,18.458984375,15.314453125,17.4072265625C15.314453125,16.355224609375,16.173828125,15.5029296875,17.22265625,15.5029296875C18.2734375,15.5029296875,19.1328125,16.355224609375,19.1328125,17.4072265625ZM24.845703125,19.31201171875C25.89453125,19.31201171875,26.744140625,18.458984375,26.744140625,17.4072265625C26.744140625,16.355224609375,25.89453125,15.5029296875,24.845703125,15.5029296875C23.78515625,15.5029296875,22.9375,16.355224609375,22.9375,17.4072265625C22.9375,18.458984375,23.78515625,19.31201171875,24.845703125,19.31201171875ZM30.560546875,21.217041015625C30.560546875,22.26904296875,29.701171875,23.121337890625,28.65234375,23.121337890625C27.603515625,23.121337890625,26.744140625,22.26904296875,26.744140625,21.217041015625C26.744140625,20.165283203125,27.603515625,19.31201171875,28.65234375,19.31201171875C29.701171875,19.31201171875,30.560546875,20.165283203125,30.560546875,21.217041015625ZM21.029296875,23.121337890625C22.08984375,23.121337890625,22.9375,22.26904296875,22.9375,21.217041015625C22.9375,20.165283203125,22.08984375,19.31201171875,21.029296875,19.31201171875C19.98046875,19.31201171875,19.1328125,20.165283203125,19.1328125,21.217041015625C19.1328125,22.26904296875,19.98046875,23.121337890625,21.029296875,23.121337890625ZM15.314453125,21.217041015625C15.314453125,22.26904296875,14.466796875,23.121337890625,13.41796875,23.121337890625C12.357421875,23.121337890625,11.509765625,22.26904296875,11.509765625,21.217041015625C11.509765625,20.165283203125,12.357421875,19.31201171875,13.41796875,19.31201171875C14.466796875,19.31201171875,15.314453125,20.165283203125,15.314453125,21.217041015625ZM5.794921875,23.121337890625C6.84375,23.121337890625,7.703125,22.26904296875,7.703125,21.217041015625C7.703125,20.165283203125,6.84375,19.31201171875,5.794921875,19.31201171875C4.74609375,19.31201171875,3.88671875,20.165283203125,3.88671875,21.217041015625C3.88671875,22.26904296875,4.74609375,23.121337890625,5.794921875,23.121337890625ZM11.509765625,25.0263671875C11.509765625,26.078369140625,10.66015625,26.931396484375,9.6015625,26.931396484375C8.55078125,26.931396484375,7.703125,26.078369140625,7.703125,25.0263671875C7.703125,23.974609375,8.55078125,23.121337890625,9.6015625,23.121337890625C10.66015625,23.121337890625,11.509765625,23.974609375,11.509765625,25.0263671875ZM17.22265625,26.931396484375C18.2734375,26.931396484375,19.1328125,26.078369140625,19.1328125,25.0263671875C19.1328125,23.974609375,18.2734375,23.121337890625,17.22265625,23.121337890625C16.173828125,23.121337890625,15.314453125,23.974609375,15.314453125,25.0263671875C15.314453125,26.078369140625,16.173828125,26.931396484375,17.22265625,26.931396484375ZM26.744140625,25.0263671875C26.744140625,26.078369140625,25.89453125,26.931396484375,24.845703125,26.931396484375C23.78515625,26.931396484375,22.9375,26.078369140625,22.9375,25.0263671875C22.9375,23.974609375,23.78515625,23.121337890625,24.845703125,23.121337890625C25.89453125,23.121337890625,26.744140625,23.974609375,26.744140625,25.0263671875ZM28.65234375,30.74072265625C29.701171875,30.74072265625,30.560546875,29.8876953125,30.560546875,28.835693359375C30.560546875,27.78369140625,29.701171875,26.931396484375,28.65234375,26.931396484375C27.603515625,26.931396484375,26.744140625,27.78369140625,26.744140625,28.835693359375C26.744140625,29.8876953125,27.603515625,30.74072265625,28.65234375,30.74072265625ZM22.9375,28.835693359375C22.9375,29.8876953125,22.08984375,30.74072265625,21.029296875,30.74072265625C19.98046875,30.74072265625,19.1328125,29.8876953125,19.1328125,28.835693359375C19.1328125,27.78369140625,19.98046875,26.931396484375,21.029296875,26.931396484375C22.08984375,26.931396484375,22.9375,27.78369140625,22.9375,28.835693359375ZM13.41796875,30.74072265625C14.466796875,30.74072265625,15.314453125,29.8876953125,15.314453125,28.835693359375C15.314453125,27.78369140625,14.466796875,26.931396484375,13.41796875,26.931396484375C12.357421875,26.931396484375,11.509765625,27.78369140625,11.509765625,28.835693359375C11.509765625,29.8876953125,12.357421875,30.74072265625,13.41796875,30.74072265625ZM7.703125,28.835693359375C7.703125,29.8876953125,6.84375,30.74072265625,5.794921875,30.74072265625C4.74609375,30.74072265625,3.88671875,29.8876953125,3.88671875,28.835693359375C3.88671875,27.78369140625,4.74609375,26.931396484375,5.794921875,26.931396484375C6.84375,26.931396484375,7.703125,27.78369140625,7.703125,28.835693359375Z" fill="url(#render-10-d)" fill-rule="evenodd" clip-rule="evenodd" style="fill: url(&quot;#render-10-d&quot;);"/></g></g></g></g></g><g id="shape-cea7a17f-99ee-80ce-8008-20fc66d2f857"><defs fill="none" style="fill: rgb(0, 0, 0);"/></g></g></g></g></g></g></g></g></svg>