<svg width="80" xmlns="http://www.w3.org/2000/svg" height="80" id="screenshot-cea7a17f-99ee-80ce-8008-20fd48706be9" viewBox="0 0 80 80" xmlns:xlink="http://www.w3.org/1999/xlink" fill="none" version="1.1"><g id="shape-cea7a17f-99ee-80ce-8008-20fd48706be9"><defs><clipPath id="frame-clip-cea7a17f-99ee-80ce-8008-20fd48706be9-render-1" class="frame-clip frame-clip-def"><rect rx="0" ry="0" x="0" y="0" width="80" height="80" transform="matrix(1.000000, 0.000000, 0.000000, 1.000000, 0.000000, 0.000000)"/></clipPath></defs><g class="frame-container-wrapper"><g class="frame-container-blur"><g class="frame-container-shadows"><g clip-path="url(#frame-clip-cea7a17f-99ee-80ce-8008-20fd48706be9-render-1)" fill="none"><g class="fills" id="fills-cea7a17f-99ee-80ce-8008-20fd48706be9"><rect rx="0" ry="0" x="0" y="0" width="80" height="80" transform="matrix(1.000000, 0.000000, 0.000000, 1.000000, 0.000000, 0.000000)" class="frame-background"/></g><g class="frame-children"><g id="shape-cea7a17f-99ee-80ce-8008-20fd48715cbd" width="800" height="800" rx="0" ry="0" style="fill: rgb(0, 0, 0);"><defs><clipPath id="render-2-a" class="svg-def" transform="matrix(1.000000, 0.000000, 0.000000, 1.000000, 0.000000, 0.000000)"><rect width="28" height="20" rx="2" fill="#fff"/></clipPath><mask y1="0" width="28" maskUnits="userSpaceOnUse" x1="0" height="20" class="svg-def" x="0" id="render-2-b" style="mask-type: alpha;" data-old-y="0" data-old-width="28" data-old-x="0" y="0" x2="28" y2="20" data-old-height="20"><g class="svg-mask-wrapper" transform="matrix(1.000000, 0.000000, 0.000000, 1.000000, 0.000000, 0.000000)"><rect x=".25" y=".25" width="27.5" height="19.5" rx="1.75" fill="#fff" stroke="#fff" stroke-width=".5"/></g></mask></defs><g id="shape-cea7a17f-99ee-80ce-8008-20fd48715cbe" style="display: none;"><g class="fills" id="fills-cea7a17f-99ee-80ce-8008-20fd48715cbe"><rect width="80" height="80" x="0.0827167443712824" transform="matrix(1.000000, 0.000000, 0.000000, 1.000000, 0.000000, 0.000000)" style="fill: none;" ry="0" fill="none" rx="0" y="-3.54524541774299"/></g></g><g id="shape-cea7a17f-99ee-80ce-8008-20fd48715cbf" clip-path="url(#render-4-a)" rx="0" ry="0" style="fill: rgb(0, 0, 0);"><defs><clipPath id="render-4-a" class="svg-def" transform="matrix(2.857143, 0.000000, 0.000000, 2.857143, 0.082717, 7.883326)"><rect width="28" height="20" rx="2" fill="#fff"/></clipPath></defs><g id="shape-cea7a17f-99ee-80ce-8008-20fd48715cc0"><g class="fills" id="fills-cea7a17f-99ee-80ce-8008-20fd48715cc0"><rect rx="1.75" ry="1.75" x="0.7970024586466025" y="8.597611725113893" transform="matrix(1.000000, 0.000000, 0.000000, 1.000000, 0.000000, 0.000000)" width="78.57142857143481" height="55.714285714286234" style="fill: rgb(255, 255, 255);"/></g><g id="strokes-cf98911c-676a-80c6-8008-29b8fd0e7b51-cea7a17f-99ee-80ce-8008-20fd48715cc0" class="strokes"><g class="stroke-shape"><rect rx="1.75" ry="1.75" x="0.7970024586466025" y="8.597611725113893" transform="matrix(1.000000, 0.000000, 0.000000, 1.000000, 0.000000, 0.000000)" width="78.57142857143481" height="55.714285714286234" style="fill: none; stroke-width: 0.5; stroke: rgb(245, 245, 245); stroke-opacity: 1;"/></g></g></g><g id="shape-cea7a17f-99ee-80ce-8008-20fd48715cc1" mask="url(#render-6-b)" rx="0" ry="0" style="fill: rgb(0, 0, 0);"><defs><mask y1="7.883326010828437" width="80" maskUnits="userSpaceOnUse" x1="0.0827167443712824" height="57.14285714285792" class="svg-def" x="0.0827167443712824" id="render-6-b" style="mask-type: alpha;" data-old-y="7.883326010828437" data-old-width="80" data-old-x="0.0827167443712824" y="7.883326010828437" x2="80.08271674437128" y2="65.02618315368636" data-old-height="57.14285714285792"><g class="svg-mask-wrapper" transform="matrix(2.857143, 0.000000, 0.000000, 2.857143, 0.082717, 7.883326)"><rect x=".25" y=".25" width="27.5" height="19.5" rx="1.75" fill="#fff" stroke="#fff" stroke-width=".5"/></g></mask></defs><g id="shape-cea7a17f-99ee-80ce-8008-20fd48715cc2"><g class="fills" id="fills-cea7a17f-99ee-80ce-8008-20fd48715cc2"><path d="M0.080078125,45.978515625L80.080078125,45.978515625L80.080078125,26.931396484375L0.080078125,26.931396484375L0.080078125,45.978515625Z" fill-rule="evenodd" clip-rule="evenodd" style="fill: rgb(12, 71, 183);"/></g></g><g id="shape-cea7a17f-99ee-80ce-8008-20fd48715cc3"><g class="fills" id="fills-cea7a17f-99ee-80ce-8008-20fd48715cc3"><path d="M0.080078125,65.0263671875L80.080078125,65.0263671875L80.080078125,45.978515625L0.080078125,45.978515625L0.080078125,65.0263671875Z" fill-rule="evenodd" clip-rule="evenodd" style="fill: rgb(229, 59, 53);"/></g></g></g></g><g id="shape-cea7a17f-99ee-80ce-8008-20fd48715cc4"><defs fill="none" style="fill: rgb(0, 0, 0);"/></g></g></g></g></g></g></g></g></svg>